name D:\school\WTK\thesis\model\3dpredictsim\Results\MidTarsalJoint\Fal_s1_bCst_PF_Natali2010_ls150_MT_k100_MTP_T5_ig23.mot
datacolumns 128
datarows 4
range 0.59064344 0.62608205
endheader
time	pelvis_tilt	pelvis_list	pelvis_rotation	pelvis_tx	pelvis_ty	pelvis_tz	hip_flexion_l	hip_adduction_l	hip_rotation_l	hip_flexion_r	hip_adduction_r	hip_rotation_r	knee_angle_l	knee_angle_r	ankle_angle_l	ankle_angle_r	subtalar_angle_l	subtalar_angle_r	mtj_angle_l	mtj_angle_r	mtp_angle_l	mtp_angle_r	lumbar_extension	lumbar_bending	lumbar_rotation	arm_flex_l	arm_add_l	arm_rot_l	arm_flex_r	arm_add_r	arm_rot_r	elbow_flex_l	elbow_flex_r	pro_sup_l	pro_sup_r	glut_med1_l/activation	glut_med2_l/activation	glut_med3_l/activation	glut_min1_l/activation	glut_min2_l/activation	glut_min3_l/activation	semimem_l/activation	semiten_l/activation	bifemlh_l/activation	bifemsh_l/activation	sar_l/activation	add_long_l/activation	add_brev_l/activation	add_mag1_l/activation	add_mag2_l/activation	add_mag3_l/activation	tfl_l/activation	pect_l/activation	grac_l/activation	glut_max1_l/activation	glut_max2_l/activation	glut_max3_l/activation	iliacus_l/activation	psoas_l/activation	quad_fem_l/activation	gem_l/activation	peri_l/activation	rect_fem_l/activation	vas_med_l/activation	vas_int_l/activation	vas_lat_l/activation	med_gas_l/activation	lat_gas_l/activation	soleus_l/activation	tib_post_l/activation	flex_dig_l/activation	flex_hal_l/activation	tib_ant_l/activation	per_brev_l/activation	per_long_l/activation	per_tert_l/activation	ext_dig_l/activation	ext_hal_l/activation	ercspn_l/activation	intobl_l/activation	extobl_l/activation	glut_med1_r/activation	glut_med2_r/activation	glut_med3_r/activation	glut_min1_r/activation	glut_min2_r/activation	glut_min3_r/activation	semimem_r/activation	semiten_r/activation	bifemlh_r/activation	bifemsh_r/activation	sar_r/activation	add_long_r/activation	add_brev_r/activation	add_mag1_r/activation	add_mag2_r/activation	add_mag3_r/activation	tfl_r/activation	pect_r/activation	grac_r/activation	glut_max1_r/activation	glut_max2_r/activation	glut_max3_r/activation	iliacus_r/activation	psoas_r/activation	quad_fem_r/activation	gem_r/activation	peri_r/activation	rect_fem_r/activation	vas_med_r/activation	vas_int_r/activation	vas_lat_r/activation	med_gas_r/activation	lat_gas_r/activation	soleus_r/activation	tib_post_r/activation	flex_dig_r/activation	flex_hal_r/activation	tib_ant_r/activation	per_brev_r/activation	per_long_r/activation	per_tert_r/activation	ext_dig_r/activation	ext_hal_r/activation	ercspn_r/activation	intobl_r/activation	extobl_r/activation	
          0.59064344	         -2.92893504	          2.20640059	         -6.14351897	          0.73830430	          0.92020272	          0.00173017	         29.14696946	          3.40383572	         -2.21055380	        -15.56237139	         -1.44998171	          7.43183288	        -10.64853671	        -12.08702149	          4.78730101	         -6.72643279	         -3.77209341	         13.51932611	         -0.38105285	          8.57651981	          1.28050806	          4.98174633	         -1.77380920	         -0.44264413	          2.14333311	         -4.76409364	        -13.45546662	          9.88728845	          4.85965809	        -13.45758340	         16.87061202	         14.05666815	         36.88690436	         86.51662706	         86.51662706	          0.05984405	          0.05984404	          0.05000004	          0.05984402	          0.05984402	          0.05984397	          0.10769136	          0.07127323	          0.19542644	          0.05489978	          0.05000001	          0.14477411	          0.22104059	          0.15976340	          0.18786690	          0.08552106	          0.05984402	          0.05000030	          0.15925585	          0.05984400	          0.05986718	          0.09083071	          0.05000000	          0.05000000	          0.26402948	          0.05000544	          0.05000023	          0.05000000	          0.07456990	          0.07491720	          0.06431436	          0.05984405	          0.05984406	          0.05984405	          0.05134790	          0.05000003	          0.05000039	          0.43975964	          0.20583422	          0.19029933	          0.06057979	          0.46174457	          0.05000000	          0.05000000	          0.12364859	          0.10283450	          0.29680625	          0.10116013	          0.07239310	          0.30140625	          0.19207065	          0.10260636	          0.05000010	          0.05000001	          0.05000000	          0.05000001	          0.11132185	          0.05000000	          0.05000000	          0.05000000	          0.05000003	          0.05000003	          0.28950934	          0.05000003	          0.05000001	          0.05000052	          0.05000024	          0.05000006	          0.37832122	          0.54839679	          0.05000000	          0.05000003	          0.05000001	          0.30075709	          0.05000008	          0.05000009	          0.05261265	          0.25575192	          0.34973503	          0.34784109	          0.23096014	          0.17380039	          0.24992908	          0.05000000	          0.10347676	          0.21351621	          0.05000000	          0.05000000	          0.05000000	          0.05000000	          0.05000000	          0.07021460	
          0.60245631	         -2.92990649	          2.29301075	         -6.39134733	          0.75644422	          0.91926821	          0.00155302	         28.45438419	          3.87572955	         -2.01983914	        -15.52272025	         -1.77025152	          7.29811393	        -10.74165165	        -13.78133000	          4.09485844	         -7.35209799	         -4.15265759	         14.45920824	         -0.46344474	          6.83741663	          1.23742937	          7.35109074	         -1.55600412	         -0.64497792	          2.23929525	         -5.74910798	        -13.44982665	          9.65368817	          4.47777032	        -13.47657583	         17.15945108	         13.73014018	         38.12604619	         86.51662706	         86.51662706	          0.05000000	          0.05000000	          0.05000005	          0.05000000	          0.05000000	          0.05000000	          0.08997665	          0.05954913	          0.16327974	          0.05000018	          0.07162624	          0.12095952	          0.27025140	          0.33257338	          0.18007127	          0.07145327	          0.05000000	          0.08225188	          0.13305912	          0.05000002	          0.05001935	          0.14126172	          0.07162618	          0.07162619	          0.58827390	          0.29641235	          0.26289683	          0.08572805	          0.19386466	          0.19732125	          0.16327623	          0.05000000	          0.05000001	          0.05000000	          0.05984404	          0.05205117	          0.05984402	          0.52751729	          0.17197549	          0.21175827	          0.26130332	          0.47694708	          0.06084142	          0.05000000	          0.10330899	          0.08591872	          0.24798307	          0.08451978	          0.06397707	          0.25182639	          0.16047596	          0.08572812	          0.05000021	          0.05000003	          0.05000003	          0.05000005	          0.09300997	          0.11941773	          0.06454823	          0.06770131	          0.05000033	          0.05000017	          0.24188646	          0.10260568	          0.06674328	          0.05000012	          0.05000008	          0.05000007	          0.31608922	          0.48551691	          0.06354522	          0.07162602	          0.05984408	          0.25128401	          0.17041895	          0.14505609	          0.07030930	          0.21368197	          0.29220531	          0.29062292	          0.19296832	          0.14521108	          0.20881697	          0.05000000	          0.08645534	          0.18231791	          0.05000002	          0.05000001	          0.05000001	          0.05000000	          0.08180502	          0.08572806	
          0.61426918	         -2.92672458	          2.38572784	         -6.60525662	          0.77495880	          0.91825464	          0.00141580	         27.61017557	          4.23072952	         -1.74907097	        -15.46914097	         -2.08870163	          7.15026322	        -11.12256767	        -15.47763910	          3.52394501	         -8.05671701	         -4.55840094	         15.32473165	         -0.67802993	          4.80939882	          1.23786346	         10.00182022	         -1.31390564	         -0.86172287	          2.32217740	         -6.76778061	        -13.45604301	          9.47418479	          4.00080155	        -13.49350837	         17.35506138	         13.44670924	         39.36147178	         86.51662706	         86.51662706	          0.28875738	          0.26642249	          0.05000003	          0.05000001	          0.05000002	          0.30326565	          0.10148748	          0.09889603	          0.14643811	          0.05000000	          0.05984408	          0.10106227	          0.22579636	          0.27786668	          0.15045045	          0.10551008	          0.05000005	          0.06872188	          0.11117157	          0.05000007	          0.05000037	          0.11802486	          0.05984403	          0.05984404	          0.49150570	          0.24765396	          0.21965164	          0.07162621	          0.16197487	          0.16486287	          0.13641809	          0.05675013	          0.05665829	          0.05876745	          0.05000000	          0.05000001	          0.05000001	          0.54440903	          0.35975077	          0.17692509	          0.21832021	          0.55613906	          0.05083331	          0.05000000	          0.10788020	          0.07178551	          0.36826480	          0.07061669	          0.05345322	          0.21040219	          0.13407845	          0.07162626	          0.05000016	          0.05000003	          0.05000002	          0.05000001	          0.07771031	          0.09977414	          0.10244615	          0.05984408	          0.05868988	          0.05000029	          0.20209733	          0.08572782	          0.05608347	          0.05000601	          0.05814398	          0.05984397	          0.26409409	          0.47434884	          0.05984404	          0.05984393	          0.05000002	          0.20994901	          0.14238588	          0.12119508	          0.06853975	          0.17853232	          0.24413896	          0.24281686	          0.16122597	          0.12132457	          0.17446759	          0.08723211	          0.15640922	          0.20891019	          0.05000001	          0.10731091	          0.05000013	          0.05690753	          0.06834849	          0.07162621	
          0.62608205	         -2.92102574	          2.48829501	         -6.78194802	          0.79361985	          0.91720188	          0.00127156	         26.66105904	          4.52354240	         -1.47693967	        -15.34810331	         -2.40185023	          7.00751711	        -11.44136803	        -17.25565671	          2.91884671	         -8.84372811	         -4.97779505	         16.09348050	         -0.61187912	          2.60848958	          1.28189880	         12.73223819	         -1.06941405	         -1.09350154	          2.39305849	         -7.77000587	        -13.46923080	          9.36735128	          3.46606832	        -13.51301132	         17.47460889	         13.17778956	         40.57687323	         86.51662706	         86.51662706	          0.37579903	          0.36829513	          0.30398593	          0.17170659	          0.27009821	          0.25337996	          0.08479329	          0.08262825	          0.12234976	          0.07162624	          0.05000014	          0.08443802	          0.18865395	          0.23215897	          0.12570211	          0.14746594	          0.05000002	          0.05741749	          0.09288441	          0.21852123	          0.16356898	          0.13440501	          0.05000000	          0.05000000	          0.41065540	          0.20691609	          0.18352002	          0.05984404	          0.13533085	          0.14636794	          0.11397801	          0.05000000	          0.05000000	          0.05000000	          0.05000000	          0.05000000	          0.05000000	          0.61427351	          0.30057356	          0.16877644	          0.54774634	          0.54513329	          0.29192056	          0.07678940	          0.09013443	          0.05997714	          0.30768714	          0.05900059	          0.05000000	          0.27071321	          0.11202320	          0.05984409	          0.05000008	          0.05000000	          0.05000000	          0.05000001	          0.06492739	          0.08336180	          0.08559428	          0.05000006	          0.05000005	          0.05000003	          0.16885330	          0.07162622	          0.05000002	          0.05000005	          0.05000002	          0.05000001	          0.22065189	          0.43023850	          0.05000000	          0.05000002	          0.05000001	          0.17541341	          0.11896413	          0.10125911	          0.08572807	          0.14916462	          0.20397928	          0.20287466	          0.13470508	          0.10136727	          0.14576852	          0.15965441	          0.16563442	          0.17454549	          0.24059975	          0.17392104	          0.05000004	          0.08077627	          0.05710549	          0.05984405	
